<?xml version="1.0" encoding="UTF-8"?>
<svg id="Layer_2" data-name="Layer 2" xmlns="http://www.w3.org/2000/svg" viewBox="0 0 67.08 65.09">
  <defs>
    <style>
      .cls-1 {
        fill: #133955;
        stroke-width: 0px;
      }
    </style>
  </defs>
  <g id="Layer_1-2" data-name="Layer 1">
    <g>
      <path class="cls-1" d="M44.85,38.98c-1.33-2.34-3.05-4.15-5.13-5.42-2.05-1.3-4.18-1.99-6.34-2.1v-.62c2.02-.5,3.82-1.33,5.48-2.43,1.66-1.13,2.99-2.61,4-4.45.98-1.87,1.48-4.15,1.48-6.85,0-1.24-.12-2.46-.36-3.62-1.07-.24-2.25-.36-3.56-.36-2.43,0-4.51.5-6.28,1.39.39,1.01.56,2.13.56,3.35,0,2.07-.5,3.91-1.57,5.42-1.04,1.54-2.43,2.73-4.21,3.59-.95.44-1.93.77-2.99.98-.27,1.72-.39,3.53-.39,5.34,0,.89.03,1.78.12,2.67,2.07.12,3.88.62,5.48,1.48,1.93,1.01,3.38,2.37,4.42,4.09,1.04,1.72,1.57,3.59,1.57,5.66s-.59,3.88-1.78,5.42c1.57.62,3.35.95,5.39.95,2.19,0,4-.39,5.51-1.04.42-1.54.62-3.14.62-4.86,0-3.38-.68-6.22-2.05-8.6ZM24.31,56.64h-14.49v-20.84h5.07c-.03-.74-.06-1.48-.06-2.22,0-1.84.12-3.65.36-5.42h-5.37V8.36h13.4c1.27,0,2.46.09,3.5.3,3.41-2.16,7.56-3.5,12.48-3.76-1.13-1.01-2.4-1.87-3.88-2.61-3.02-1.51-6.85-2.28-11.47-2.28H0v65.09h24.93c5.04,0,9.19-.77,12.42-2.31.71-.33,1.39-.71,2.02-1.1-6.22-.15-11.23-1.99-15.06-5.04Z"/>
      <path class="cls-1" d="M67.08,23.22h-5.48c-.41-1.84-1.14-3.54-2.2-5.11-1.06-1.57-2.39-2.94-3.98-4.11-1.59-1.17-3.4-2.08-5.42-2.73-2.02-.65-4.21-.97-6.56-.97-3.77,0-7.21.88-10.3,2.65-3.1,1.77-5.58,4.36-7.43,7.78-1.86,3.42-2.78,7.61-2.78,12.56s.93,9.19,2.78,12.6c1.86,3.41,4.33,6,7.43,7.76,3.1,1.76,6.53,2.64,10.3,2.64,2.35,0,4.54-.32,6.56-.97,2.02-.65,3.83-1.55,5.42-2.72,1.59-1.16,2.92-2.53,3.98-4.11,1.06-1.58,1.79-3.28,2.2-5.12h5.48c-.49,2.47-1.39,4.76-2.73,6.89-1.33,2.13-3.02,3.99-5.07,5.58-2.05,1.59-4.41,2.84-7.07,3.73-2.66.89-5.59,1.34-8.77,1.34-5.01,0-9.46-1.13-13.35-3.4-3.89-2.27-6.93-5.46-9.14-9.6-2.21-4.13-3.31-9-3.31-14.62s1.1-10.49,3.31-14.62c2.21-4.13,5.25-7.33,9.14-9.6,3.89-2.27,8.34-3.4,13.35-3.4,3.19,0,6.11.44,8.77,1.33s5.02,2.13,7.07,3.73c2.05,1.6,3.74,3.46,5.07,5.58,1.33,2.12,2.24,4.42,2.73,6.9Z"/>
    </g>
  </g>
</svg>