<?xml version="1.0" encoding="UTF-8"?>
<svg id="Layer_2" data-name="Layer 2" xmlns="http://www.w3.org/2000/svg" width="60" height="60" viewBox="0 0 53.89 52.29">
  <defs>
    <style>
      .cls-1 {
        fill: #111;
        stroke-width: 0px;
      }
    </style>
  </defs>
  <g id="Layer_1-2" data-name="Layer 1">
    <g>
      <path class="cls-1" d="M36.02,31.31c-1.07-1.88-2.45-3.33-4.12-4.36-1.64-1.05-3.36-1.6-5.1-1.69v-.5c1.62-.4,3.07-1.07,4.4-1.95,1.33-.9,2.4-2.1,3.21-3.57.79-1.5,1.19-3.33,1.19-5.5,0-1-.1-1.98-.29-2.9-.86-.19-1.81-.29-2.86-.29-1.95,0-3.62.4-5.05,1.12.31.81.45,1.71.45,2.69,0,1.67-.4,3.14-1.26,4.36-.83,1.24-1.95,2.19-3.38,2.88-.76.36-1.55.62-2.4.79-.21,1.38-.31,2.83-.31,4.29,0,.71.02,1.43.1,2.14,1.67.1,3.12.5,4.4,1.19,1.55.81,2.71,1.9,3.55,3.29.83,1.38,1.26,2.88,1.26,4.55s-.48,3.12-1.43,4.36c1.26.5,2.69.76,4.33.76,1.76,0,3.21-.31,4.43-.83.33-1.24.5-2.52.5-3.9,0-2.71-.55-5-1.64-6.9ZM19.52,45.5H7.88v-16.74h4.07c-.02-.6-.05-1.19-.05-1.79,0-1.48.1-2.93.29-4.36h-4.31V6.71h10.76c1.02,0,1.98.07,2.81.24,2.74-1.74,6.07-2.81,10.02-3.02-.9-.81-1.93-1.5-3.12-2.1-2.43-1.21-5.5-1.83-9.21-1.83H0v52.29h20.02c4.05,0,7.38-.62,9.98-1.86.57-.26,1.12-.57,1.62-.88-5-.12-9.02-1.6-12.1-4.05Z"/>
      <path class="cls-1" d="M53.89,18.65h-4.4c-.33-1.48-.92-2.84-1.77-4.1-.85-1.26-1.92-2.36-3.2-3.3-1.28-.94-2.73-1.67-4.35-2.19-1.62-.52-3.38-.78-5.27-.78-3.03,0-5.79.71-8.28,2.13-2.49,1.42-4.48,3.5-5.97,6.25-1.49,2.75-2.24,6.11-2.24,10.09s.75,7.38,2.24,10.12,3.48,4.82,5.97,6.23,5.25,2.12,8.28,2.12c1.89,0,3.64-.26,5.27-.78s3.08-1.25,4.35-2.18c1.28-.93,2.35-2.03,3.2-3.3.85-1.27,1.44-2.64,1.77-4.11h4.4c-.39,1.98-1.12,3.83-2.19,5.54-1.07,1.71-2.43,3.2-4.07,4.48-1.65,1.28-3.54,2.28-5.68,2.99-2.14.72-4.49,1.08-7.05,1.08-4.03,0-7.6-.91-10.72-2.73-3.12-1.82-5.57-4.39-7.34-7.71-1.77-3.32-2.66-7.23-2.66-11.75s.89-8.43,2.66-11.75c1.77-3.32,4.22-5.89,7.34-7.71,3.12-1.82,6.7-2.73,10.72-2.73,2.56,0,4.91.36,7.05,1.07s4.03,1.71,5.68,2.99c1.65,1.29,3,2.78,4.07,4.48,1.07,1.7,1.8,3.55,2.19,5.55Z"/>
    </g>
  </g>
</svg>