<?xml version="1.0" encoding="UTF-8"?>
<svg id="Layer_2" data-name="Layer 2" xmlns="http://www.w3.org/2000/svg" viewBox="0 0 55.96 55.96">
  <defs>
    <style>
      .cls-1 {
        fill: #fff;
      }

      .cls-1, .cls-2 {
        stroke-width: 0px;
      }

      .cls-2 {
        fill: #133955;
      }
    </style>
  </defs>
  <g id="Layer_1-2" data-name="Layer 1">
    <g>
      <circle class="cls-2" cx="27.98" cy="27.98" r="27.98"/>
      <g>
        <path class="cls-1" d="M37.28,30.62c-.71-1.25-1.64-2.22-2.75-2.91-1.1-.7-2.24-1.06-3.4-1.13v-.33c1.08-.27,2.05-.71,2.94-1.3.89-.6,1.6-1.4,2.14-2.38.52-1,.79-2.22.79-3.67,0-.67-.06-1.32-.19-1.94-.57-.13-1.21-.19-1.91-.19-1.3,0-2.41.27-3.37.75.21.54.3,1.14.3,1.79,0,1.11-.27,2.1-.84,2.91-.56.83-1.3,1.46-2.26,1.92-.51.24-1.03.41-1.6.52-.14.92-.21,1.89-.21,2.86,0,.48.02.95.06,1.43,1.11.06,2.08.33,2.94.79,1.03.54,1.81,1.27,2.37,2.19.56.92.84,1.92.84,3.03s-.32,2.08-.95,2.91c.84.33,1.79.51,2.89.51,1.18,0,2.14-.21,2.95-.56.22-.83.33-1.68.33-2.6,0-1.81-.37-3.33-1.1-4.61ZM26.27,40.09h-7.77v-11.16h2.72c-.02-.4-.03-.79-.03-1.19,0-.98.06-1.95.19-2.91h-2.87v-10.61h7.18c.68,0,1.32.05,1.87.16,1.83-1.16,4.05-1.87,6.69-2.02-.6-.54-1.29-1-2.08-1.4-1.62-.81-3.67-1.22-6.15-1.22h-12.77v34.87h13.36c2.7,0,4.92-.41,6.65-1.24.38-.17.75-.38,1.08-.59-3.33-.08-6.02-1.06-8.07-2.7Z"/>
        <path class="cls-1" d="M49.19,22.18h-2.94c-.22-.98-.61-1.9-1.18-2.74-.57-.84-1.28-1.57-2.13-2.2-.85-.63-1.82-1.12-2.9-1.46-1.08-.35-2.25-.52-3.51-.52-2.02,0-3.86.47-5.52,1.42-1.66.95-2.99,2.34-3.98,4.17-.99,1.83-1.49,4.08-1.49,6.73s.5,4.92,1.49,6.75,2.32,3.21,3.98,4.16,3.5,1.41,5.52,1.41c1.26,0,2.43-.17,3.51-.52,1.08-.35,2.05-.83,2.9-1.46.85-.62,1.56-1.36,2.13-2.2.57-.84.96-1.76,1.18-2.74h2.94c-.26,1.32-.75,2.55-1.46,3.69-.71,1.14-1.62,2.14-2.72,2.99-1.1.85-2.36,1.52-3.79,2-1.43.48-2.99.72-4.7.72-2.69,0-5.07-.61-7.15-1.82-2.08-1.21-3.71-2.93-4.9-5.14-1.18-2.21-1.77-4.82-1.77-7.83s.59-5.62,1.77-7.83c1.18-2.21,2.81-3.93,4.9-5.14,2.08-1.21,4.47-1.82,7.15-1.82,1.71,0,3.27.24,4.7.71s2.69,1.14,3.79,2c1.1.86,2,1.85,2.72,2.99.71,1.13,1.2,2.37,1.46,3.7Z"/>
      </g>
    </g>
  </g>
</svg>