<svg width="30" height="30" viewBox="0 0 30 30" fill="none" xmlns="http://www.w3.org/2000/svg">
<path d="M14.9998 0.916687C13.0847 0.916687 11.1884 1.2939 9.41904 2.02678C7.64971 2.75966 6.04205 3.83386 4.68786 5.18805C1.95296 7.92295 0.416504 11.6323 0.416504 15.5C0.416504 21.9459 4.60192 27.4146 10.3915 29.3542C11.1207 29.4709 11.354 29.0188 11.354 28.625V26.1604C7.31442 27.0354 6.454 24.2063 6.454 24.2063C5.78317 22.5146 4.83525 22.0625 4.83525 22.0625C3.50817 21.1584 4.93734 21.1875 4.93734 21.1875C6.39567 21.2896 7.16859 22.6896 7.16859 22.6896C8.43734 24.9063 10.5811 24.25 11.4123 23.9C11.5436 22.9521 11.9228 22.3104 12.3311 21.9459C9.09359 21.5813 5.69567 20.3271 5.69567 14.7709C5.69567 13.1521 6.24984 11.8542 7.19775 10.8188C7.05192 10.4542 6.5415 8.93752 7.34359 6.96877C7.34359 6.96877 8.56859 6.57502 11.354 8.45627C12.5061 8.13544 13.7603 7.97502 14.9998 7.97502C16.2394 7.97502 17.4936 8.13544 18.6457 8.45627C21.4311 6.57502 22.6561 6.96877 22.6561 6.96877C23.4582 8.93752 22.9478 10.4542 22.8019 10.8188C23.7498 11.8542 24.304 13.1521 24.304 14.7709C24.304 20.3417 20.8915 21.5667 17.6394 21.9313C18.1644 22.3834 18.6457 23.2729 18.6457 24.6292V28.625C18.6457 29.0188 18.879 29.4854 19.6228 29.3542C25.4123 27.4 29.5832 21.9459 29.5832 15.5C29.5832 13.5849 29.206 11.6886 28.4731 9.91922C27.7402 8.14989 26.666 6.54223 25.3118 5.18805C23.9576 3.83386 22.35 2.75966 20.5806 2.02678C18.8113 1.2939 16.9149 0.916687 14.9998 0.916687Z" fill="#111111"/>
</svg>
