<svg width="32" height="31" viewBox="0 0 32 31" fill="none" xmlns="http://www.w3.org/2000/svg">
<path d="M15.5077 5.16409L18.2421 2.42971C18.9531 1.71873 19.7971 1.15474 20.7261 0.769961C21.655 0.385179 22.6507 0.187134 23.6562 0.187134C24.6616 0.187134 25.6573 0.385179 26.5862 0.769961C27.5152 1.15474 28.3592 1.71873 29.0702 2.42971C29.7812 3.1407 30.3452 3.98476 30.73 4.9137C31.1147 5.84265 31.3128 6.83829 31.3128 7.84377C31.3128 8.84926 31.1147 9.8449 30.73 10.7738C30.3452 11.7028 29.7812 12.5469 29.0702 13.2578L23.6015 18.7266C22.8905 19.4376 22.0465 20.0016 21.1175 20.3865C20.1886 20.7713 19.1929 20.9693 18.1874 20.9693C17.1819 20.9693 16.1863 20.7713 15.2573 20.3865C14.3284 20.0016 13.4843 19.4376 12.7733 18.7266C12.4837 18.4154 12.326 18.004 12.3333 17.579C12.3407 17.1539 12.5125 16.7482 12.8127 16.4472C13.1137 16.147 13.5194 15.9752 13.9445 15.9678C14.3695 15.9605 14.7809 16.1182 15.0921 16.4078C15.4981 16.8151 15.9805 17.1383 16.5117 17.3588C17.0428 17.5793 17.6123 17.6928 18.1874 17.6928C18.7625 17.6928 19.332 17.5793 19.8631 17.3588C20.3943 17.1383 20.8767 16.8151 21.2827 16.4078L26.7515 10.9391C27.5325 10.1101 27.9598 9.00955 27.9428 7.87078C27.9259 6.732 27.4659 5.64463 26.6606 4.8393C25.8553 4.03398 24.7679 3.57406 23.6292 3.5571C22.4904 3.54014 21.3898 3.96748 20.5608 4.74846L17.8265 7.48284C17.5153 7.77248 17.1039 7.93021 16.6788 7.92286C16.2538 7.91552 15.8481 7.74368 15.5471 7.44346C15.2469 7.14245 15.075 6.73678 15.0677 6.31172C15.0603 5.88665 15.2181 5.47528 15.5077 5.16409ZM5.24834 26.2516C5.65437 26.6589 6.13678 26.982 6.66794 27.2025C7.1991 27.423 7.76855 27.5365 8.34365 27.5365C8.91876 27.5365 9.48821 27.423 10.0194 27.2025C10.5505 26.982 11.0329 26.6589 11.439 26.2516L14.1733 23.5172C14.4845 23.2276 14.8959 23.0698 15.321 23.0772C15.746 23.0845 16.1517 23.2564 16.4527 23.5566C16.7529 23.8576 16.9248 24.2633 16.9321 24.6883C16.9395 25.1134 16.7817 25.5248 16.4921 25.836L13.7577 28.5703C13.0467 29.2813 12.2027 29.8453 11.2737 30.2301C10.3448 30.6149 9.34914 30.8129 8.34365 30.8129C6.31298 30.8129 4.36549 30.0062 2.92959 28.5703C1.49369 27.1344 0.687012 25.1869 0.687012 23.1563C0.687012 21.1256 1.49369 19.1781 2.92959 17.7422L8.39834 12.2735C9.1093 11.5624 9.95335 10.9984 10.8823 10.6136C11.8113 10.2288 12.8069 10.0307 13.8124 10.0307C14.8179 10.0307 15.8136 10.2288 16.7425 10.6136C17.6715 10.9984 18.5155 11.5624 19.2265 12.2735C19.5161 12.5847 19.6738 12.996 19.6665 13.4211C19.6591 13.8462 19.4873 14.2518 19.1871 14.5528C18.8861 14.8531 18.4804 15.0249 18.0553 15.0322C17.6303 15.0396 17.2189 14.8819 16.9077 14.5922C16.5017 14.1849 16.0193 13.8618 15.4881 13.6413C14.957 13.4208 14.3875 13.3073 13.8124 13.3073C13.2373 13.3073 12.6678 13.4208 12.1367 13.6413C11.6055 13.8618 11.1231 14.1849 10.7171 14.5922L5.24834 20.061C4.84105 20.467 4.51789 20.9494 4.29739 21.4806C4.07689 22.0117 3.96339 22.5812 3.96339 23.1563C3.96339 23.7314 4.07689 24.3008 4.29739 24.832C4.51789 25.3631 4.84105 25.8456 5.24834 26.2516Z" fill="#111111"/>
</svg>
